<mxfile host="Electron" agent="Mozilla/5.0 (Macintosh; Intel Mac OS X 10_15_7) AppleWebKit/537.36 (KHTML, like Gecko) draw.io/26.0.4 Chrome/128.0.6613.186 Electron/32.2.5 Safari/537.36" version="26.0.4">
  <diagram name="Seite-1" id="ijfn6LtfHv7hEw_kqGPE">
    <mxGraphModel dx="1158" dy="879" grid="0" gridSize="10" guides="1" tooltips="1" connect="1" arrows="1" fold="1" page="1" pageScale="1" pageWidth="827" pageHeight="1169" math="0" shadow="0">
      <root>
        <mxCell id="0" />
        <mxCell id="1" parent="0" />
        <mxCell id="FKdGwcdwB45EFueYq_QS-11" value="" style="ellipse;whiteSpace=wrap;html=1;aspect=fixed;fillColor=#dae8fc;strokeColor=none;opacity=40;" vertex="1" parent="1">
          <mxGeometry x="112" y="32.01" width="595.99" height="595.99" as="geometry" />
        </mxCell>
        <mxCell id="FKdGwcdwB45EFueYq_QS-2" value="" style="ellipse;whiteSpace=wrap;html=1;aspect=fixed;fillColor=#dae8fc;strokeColor=none;" vertex="1" parent="1">
          <mxGeometry x="222" y="142.01" width="375.99" height="375.99" as="geometry" />
        </mxCell>
        <mxCell id="FKdGwcdwB45EFueYq_QS-1" value="&lt;span&gt;PARK&lt;/span&gt;" style="ellipse;whiteSpace=wrap;html=1;aspect=fixed;fillColor=#647687;fontColor=#ffffff;fontSize=14;fontStyle=1;strokeColor=none;" vertex="1" parent="1">
          <mxGeometry x="365" y="279" width="90" height="90" as="geometry" />
        </mxCell>
        <mxCell id="FKdGwcdwB45EFueYq_QS-3" value="internal" style="text;html=1;align=center;verticalAlign=middle;whiteSpace=wrap;rounded=0;fontStyle=1" vertex="1" parent="1">
          <mxGeometry x="536" y="315" width="60" height="30" as="geometry" />
        </mxCell>
        <mxCell id="FKdGwcdwB45EFueYq_QS-4" value="external" style="text;html=1;align=center;verticalAlign=middle;whiteSpace=wrap;rounded=0;fontStyle=1" vertex="1" parent="1">
          <mxGeometry x="597.99" y="315" width="60" height="30" as="geometry" />
        </mxCell>
        <mxCell id="FKdGwcdwB45EFueYq_QS-38" style="rounded=0;orthogonalLoop=1;jettySize=auto;html=1;startArrow=classic;startFill=1;endArrow=classic;endFill=1;" edge="1" parent="1" source="FKdGwcdwB45EFueYq_QS-6" target="FKdGwcdwB45EFueYq_QS-1">
          <mxGeometry relative="1" as="geometry" />
        </mxCell>
        <mxCell id="FKdGwcdwB45EFueYq_QS-6" value="IAM" style="rounded=1;whiteSpace=wrap;html=1;fontSize=13;" vertex="1" parent="1">
          <mxGeometry x="523" y="374" width="53" height="30" as="geometry" />
        </mxCell>
        <mxCell id="FKdGwcdwB45EFueYq_QS-36" style="rounded=0;orthogonalLoop=1;jettySize=auto;html=1;startArrow=classic;startFill=1;endArrow=classic;endFill=1;" edge="1" parent="1" source="FKdGwcdwB45EFueYq_QS-7" target="FKdGwcdwB45EFueYq_QS-1">
          <mxGeometry relative="1" as="geometry" />
        </mxCell>
        <mxCell id="FKdGwcdwB45EFueYq_QS-7" value="Firestore" style="rounded=1;whiteSpace=wrap;html=1;fontSize=13;" vertex="1" parent="1">
          <mxGeometry x="284" y="423.5" width="68" height="37" as="geometry" />
        </mxCell>
        <mxCell id="FKdGwcdwB45EFueYq_QS-32" style="rounded=0;orthogonalLoop=1;jettySize=auto;html=1;entryX=0;entryY=0;entryDx=0;entryDy=0;startArrow=classic;startFill=1;endArrow=classic;endFill=1;" edge="1" parent="1" source="FKdGwcdwB45EFueYq_QS-8" target="FKdGwcdwB45EFueYq_QS-1">
          <mxGeometry relative="1" as="geometry" />
        </mxCell>
        <mxCell id="FKdGwcdwB45EFueYq_QS-8" value="Cloud &lt;br&gt;Storage" style="rounded=1;whiteSpace=wrap;html=1;fontSize=13;" vertex="1" parent="1">
          <mxGeometry x="279.5" y="209" width="77" height="42" as="geometry" />
        </mxCell>
        <mxCell id="FKdGwcdwB45EFueYq_QS-47" style="rounded=0;orthogonalLoop=1;jettySize=auto;html=1;startArrow=classic;startFill=1;endArrow=classic;endFill=1;" edge="1" parent="1" source="FKdGwcdwB45EFueYq_QS-12" target="FKdGwcdwB45EFueYq_QS-1">
          <mxGeometry relative="1" as="geometry" />
        </mxCell>
        <mxCell id="FKdGwcdwB45EFueYq_QS-12" value="Gates" style="rounded=1;whiteSpace=wrap;html=1;fontSize=13;" vertex="1" parent="1">
          <mxGeometry x="359" y="69" width="71.5" height="37" as="geometry" />
        </mxCell>
        <mxCell id="FKdGwcdwB45EFueYq_QS-51" style="rounded=0;orthogonalLoop=1;jettySize=auto;html=1;startArrow=classic;startFill=1;endArrow=classic;endFill=1;" edge="1" parent="1" source="FKdGwcdwB45EFueYq_QS-13" target="FKdGwcdwB45EFueYq_QS-1">
          <mxGeometry relative="1" as="geometry" />
        </mxCell>
        <mxCell id="FKdGwcdwB45EFueYq_QS-13" value="Payment Terminals" style="rounded=1;whiteSpace=wrap;html=1;fontSize=13;" vertex="1" parent="1">
          <mxGeometry x="359" y="561" width="78" height="37" as="geometry" />
        </mxCell>
        <mxCell id="FKdGwcdwB45EFueYq_QS-48" style="rounded=0;orthogonalLoop=1;jettySize=auto;html=1;startArrow=classic;startFill=1;endArrow=classic;endFill=1;" edge="1" parent="1" source="FKdGwcdwB45EFueYq_QS-14" target="FKdGwcdwB45EFueYq_QS-1">
          <mxGeometry relative="1" as="geometry" />
        </mxCell>
        <mxCell id="FKdGwcdwB45EFueYq_QS-14" value="Charging Stations" style="rounded=1;whiteSpace=wrap;html=1;fontSize=13;" vertex="1" parent="1">
          <mxGeometry x="514.5" y="106" width="70" height="37" as="geometry" />
        </mxCell>
        <mxCell id="FKdGwcdwB45EFueYq_QS-53" style="rounded=0;orthogonalLoop=1;jettySize=auto;html=1;startArrow=classic;startFill=1;endArrow=classic;endFill=1;" edge="1" parent="1" source="FKdGwcdwB45EFueYq_QS-15" target="FKdGwcdwB45EFueYq_QS-1">
          <mxGeometry relative="1" as="geometry" />
        </mxCell>
        <mxCell id="FKdGwcdwB45EFueYq_QS-15" value="Charging &lt;br&gt;Apps" style="rounded=1;whiteSpace=wrap;html=1;fontSize=13;" vertex="1" parent="1">
          <mxGeometry x="135" y="259" width="71" height="37" as="geometry" />
        </mxCell>
        <mxCell id="FKdGwcdwB45EFueYq_QS-49" style="rounded=0;orthogonalLoop=1;jettySize=auto;html=1;startArrow=classic;startFill=1;endArrow=classic;endFill=1;" edge="1" parent="1" source="FKdGwcdwB45EFueYq_QS-17" target="FKdGwcdwB45EFueYq_QS-1">
          <mxGeometry relative="1" as="geometry" />
        </mxCell>
        <mxCell id="FKdGwcdwB45EFueYq_QS-17" value="Customer" style="shape=umlActor;verticalLabelPosition=bottom;verticalAlign=top;html=1;outlineConnect=0;fontSize=13;" vertex="1" parent="1">
          <mxGeometry x="626" y="205" width="21" height="42" as="geometry" />
        </mxCell>
        <mxCell id="FKdGwcdwB45EFueYq_QS-52" style="rounded=0;orthogonalLoop=1;jettySize=auto;html=1;startArrow=classic;startFill=1;endArrow=classic;endFill=1;" edge="1" parent="1" source="FKdGwcdwB45EFueYq_QS-19" target="FKdGwcdwB45EFueYq_QS-1">
          <mxGeometry relative="1" as="geometry" />
        </mxCell>
        <mxCell id="FKdGwcdwB45EFueYq_QS-19" value="Tenant &lt;br&gt;Admin" style="shape=umlActor;verticalLabelPosition=bottom;verticalAlign=top;html=1;outlineConnect=0;fontSize=13;" vertex="1" parent="1">
          <mxGeometry x="177" y="388" width="21" height="42" as="geometry" />
        </mxCell>
        <mxCell id="FKdGwcdwB45EFueYq_QS-50" style="rounded=0;orthogonalLoop=1;jettySize=auto;html=1;startArrow=classic;startFill=1;endArrow=classic;endFill=1;" edge="1" parent="1" source="FKdGwcdwB45EFueYq_QS-22" target="FKdGwcdwB45EFueYq_QS-1">
          <mxGeometry relative="1" as="geometry" />
        </mxCell>
        <mxCell id="FKdGwcdwB45EFueYq_QS-22" value="Tenant&lt;br&gt;Staff" style="shape=umlActor;verticalLabelPosition=bottom;verticalAlign=top;html=1;outlineConnect=0;fontSize=13;" vertex="1" parent="1">
          <mxGeometry x="526" y="511" width="21" height="42" as="geometry" />
        </mxCell>
      </root>
    </mxGraphModel>
  </diagram>
</mxfile>
